# xmcd CD database file
#
# Track frame offsets:
#	150
#	21972
#	43980
#	70165
#	95910
#	110325
#	128082
#	150990
#	183177
#	203480
#
# Disc length: 3039 seconds
#
# Revision: 0
# Processed by: cddbd v1.4PL0 Copyright (c) Steve Scherf et al.
# Submitted via: CDex 1.50
#
DISCID=800bdd0a
DTITLE=Lois Dawson - Sunrise
DYEAR=1998
DGENRE=Jazz
TTITLE0=Sunrise (For Donald)
TTITLE1=Southern Summer Rain
TTITLE2=Confessions of A Fool
TTITLE3=Incantations
TTITLE4=Comfort and Friend
TTITLE5=Will We Ever Learn
TTITLE6=No Goodbyes
TTITLE7=Desire
TTITLE8=Run Away With Me
TTITLE9=Peace Offering
EXTD=YEAR: 1998
EXTT0=
EXTT1=
EXTT2=
EXTT3=
EXTT4=
EXTT5=
EXTT6=
EXTT7=
EXTT8=
EXTT9=
PLAYORDER=
